# xmcd
#
# Track frame offsets:
#	150
#	22289
#	42352
#	56236
#	78452
#	105154
#	117004
#	133385
#	143004
#	166953
#
# Disc length: 2456 seconds
#
# Revision: 0
# Processed by: cddbd v1.5.2PL0 Copyright (c) Steve Scherf et al.
# Submitted via: EasyCDDAExtractor 12.1.0.1
#
DISCID=8809960a
DTITLE=Sons of Salvation - Standing in the Light
DYEAR=1900
DGENRE=Gospel
TTITLE0=Peace in the valley
TTITLE1=Going up Yonder
TTITLE2=That's enough
TTITLE3=Sending up my timber
TTITLE4=I am determined
TTITLE5=No ways tired
TTITLE6=Traveling shoes
TTITLE7=Christian automobile
TTITLE8=Walk around Heaven
TTITLE9=Christian Jubilee
EXTD=
EXTT0=
EXTT1=
EXTT2=
EXTT3=
EXTT4=
EXTT5=
EXTT6=
EXTT7=
EXTT8=
EXTT9=
PLAYORDER=
